<svg height="15" viewBox="0 0 18 15" width="18" fill="#393aaa" xmlns="http://www.w3.org/2000/svg">
    <g fill-rule="evenodd" transform="translate(-2 -1)">
        <path d="m14.65625 5h-10.3125c-1.2928125 0-2.34375 1.07273913-2.34375 2.39130435v6.21739135c0 1.3185652 1.0509375 2.3913043 2.34375 2.3913043h10.3125c1.2928125 0 2.34375-1.0727391 2.34375-2.3913043v-6.21739135c0-1.31856522-1.0509375-2.39130435-2.34375-2.39130435zm-11.71875 3.34782609h13.125v.95652174h-13.125zm1.40625-2.39130435h10.3125c.7753125 0 1.40625.64373913 1.40625 1.43478261h-13.125c0-.79104348.6309375-1.43478261 1.40625-1.43478261zm10.3125 9.08695656h-10.3125c-.7753125 0-1.40625-.6437392-1.40625-1.4347826v-3.3478261h13.125v3.3478261c0 .7910434-.6309375 1.4347826-1.40625 1.4347826z"
              fill-rule="nonzero"/>
        <path d="m18 1v1.499l1.5.001v1h-1.5v1.5h-1v-1.5h-1.5v-1h1.5v-1.5z"/>
    </g>
</svg>
