<?xml version="1.0" encoding="UTF-8"?>
<svg width="46px" height="46px" viewBox="0 0 46 46" version="1.1" xmlns="http://www.w3.org/2000/svg" xmlns:xlink="http://www.w3.org/1999/xlink">
    <!-- Generator: Sketch 64 (93537) - https://sketch.com -->
    <title>bonusNotification</title>
    <desc>Created with Sketch.</desc>
    <g id="Mobile" stroke="none" stroke-width="1" fill="none" fill-rule="evenodd">
        <g id="005-1.-Уведомления" transform="translate(-7.000000, -287.000000)">
            <g id="Group-29" transform="translate(7.000000, 286.000000)">
                <g id="bonusNotification" transform="translate(0.000000, 1.000000)">
                    <rect id="Rectangle" fill="#F5923B" x="0" y="0" width="46" height="46" rx="16"></rect>
                    <path d="M17.5903771,31.8398876 C17.1732602,31.8398876 16.8351201,31.5017476 16.8351201,31.0846307 C16.8351201,30.9511677 16.8704864,30.8200881 16.937618,30.7047377 L26.4876096,14.2952623 C26.8966306,13.5924532 27.6484726,13.1601124 28.4616385,13.1601124 C28.8787554,13.1601124 29.2168955,13.4982524 29.2168955,13.9153693 C29.2168955,14.0488323 29.1815292,14.1799119 29.1143976,14.2952623 L19.564406,30.7047377 C19.155385,31.4075468 18.403543,31.8398876 17.5903771,31.8398876 Z" id="%" fill="#FFFFFF" fill-rule="nonzero"></path>
                    <path d="M29.396619,22.8735955 C30.7490315,22.8735955 31.8500174,23.3094526 32.6996099,24.1811798 C33.566541,25.0706973 34,26.1558925 34,27.4367978 C34,28.717703 33.566541,29.8028982 32.6996099,30.6924157 C31.8500174,31.5641429 30.7490315,32 29.396619,32 C28.0442133,32 26.9432205,31.5641429 26.0936281,30.6924157 C25.226697,29.8028982 24.793238,28.717703 24.793238,27.4367978 C24.793238,26.1558925 25.226697,25.0706973 26.0936281,24.1811798 C26.9432205,23.3094526 28.0442133,22.8735955 29.396619,22.8735955 Z M29.396619,25.2752809 C28.7897672,25.2752809 28.2869547,25.4798669 27.8881664,25.8890449 C27.5067168,26.298223 27.3159948,26.8141355 27.3159948,27.4367978 C27.3159948,28.05946 27.5067168,28.5753725 27.8881664,28.9845506 C28.2869547,29.3937286 28.7897672,29.5983146 29.396619,29.5983146 C29.9861321,29.5983146 30.4802754,29.3937286 30.8790637,28.9845506 C31.277852,28.5753725 31.4772432,28.05946 31.4772432,27.4367978 C31.4772432,26.8141355 31.277852,26.298223 30.8790637,25.8890449 C30.4802754,25.4798669 29.9861321,25.2752809 29.396619,25.2752809 Z" id="Combined-Shape" fill="#FFFFFF" fill-rule="nonzero" opacity="0.600000024"></path>
                    <path d="M16.603381,13 C17.9557935,13 19.0567795,13.4358571 19.9063719,14.3075843 C20.773303,15.1971018 21.206762,16.282297 21.206762,17.5632022 C21.206762,18.8441075 20.773303,19.9293027 19.9063719,20.8188202 C19.0567795,21.6905474 17.9557935,22.1264045 16.603381,22.1264045 C15.2509753,22.1264045 14.1499826,21.6905474 13.3003901,20.8188202 C12.433459,19.9293027 12,18.8441075 12,17.5632022 C12,16.282297 12.433459,15.1971018 13.3003901,14.3075843 C14.1499826,13.4358571 15.2509753,13 16.603381,13 Z M16.603381,15.4016854 C15.9965293,15.4016854 15.4937168,15.6062714 15.0949285,16.0154494 C14.7134788,16.4246275 14.5227568,16.94054 14.5227568,17.5632022 C14.5227568,18.1858645 14.7134788,18.701777 15.0949285,19.1109551 C15.4937168,19.5201331 15.9965293,19.7247191 16.603381,19.7247191 C17.1928941,19.7247191 17.6870375,19.5201331 18.0858257,19.1109551 C18.484614,18.701777 18.6840052,18.1858645 18.6840052,17.5632022 C18.6840052,16.94054 18.484614,16.4246275 18.0858257,16.0154494 C17.6870375,15.6062714 17.1928941,15.4016854 16.603381,15.4016854 Z" id="Combined-Shape" fill="#FFFFFF" fill-rule="nonzero" opacity="0.600000024"></path>
                </g>
            </g>
        </g>
    </g>
</svg>