<svg height="16" fill="#393aaa" viewBox="0 0 16 16" width="16" xmlns="http://www.w3.org/2000/svg">
    <path d="m17.0710678 4.34314575c.5857864.58578644.5857864 1.53553391 0 2.12132034l-3.5355339 3.53553391 3.5355339 3.5355339c.5857864.5857864.5857864 1.5355339 0 2.1213203l-1.4142136 1.4142136c-.5857864.5857864-1.5355339.5857864-2.1213203 0l-3.5355339-3.5355339-3.53553391 3.5355339c-.58578643.5857864-1.5355339.5857864-2.12132034 0l-1.41421356-1.4142136c-.58578644-.5857864-.58578644-1.5355339 0-2.1213203l3.5355339-3.5355339-3.5355339-3.53553391c-.58578644-.58578643-.58578644-1.5355339 0-2.12132034l1.41421356-1.41421356c.58578644-.58578644 1.53553391-.58578644 2.12132034 0l3.53553391 3.5355339 3.5355339-3.5355339c.5857864-.58578644 1.5355339-.58578644 2.1213203 0zm-.9192388.91923882-1.4142136-1.41421357c-.0781048-.07810485-.2047378-.07810485-.2828427 0l-4.4547727 4.45477273-4.45477272-4.45477273c-.07810486-.07810485-.20473786-.07810485-.28284271 0l-1.41421357 1.41421357c-.07810485.07810485-.07810485.20473785 0 .28284271l4.45477273 4.45477272-4.45477273 4.4547727c-.07810485.0781049-.07810485.2047379 0 .2828427l1.41421357 1.4142136c.07810485.0781049.20473785.0781049.28284271 0l4.45477272-4.4547727 4.4547727 4.4547727c.0781049.0781049.2047379.0781049.2828427 0l1.4142136-1.4142136c.0781049-.0781048.0781049-.2047378 0-.2828427l-4.4547727-4.4547727 4.4547727-4.45477272c.0624839-.06248389.0749807-.15602578.0374903-.23093287z"
          transform="translate(-2 -2)"/>
</svg>
