<svg height="1024" viewBox="0 0 24 24" width="1024" fill="#ffffff" shape-rendering="crispEdges" xmlns="http://www.w3.org/2000/svg">
    <path d="m6.4109487 3.26188345c-6.08912607 4.53418738-8.213955 12.10553445-4.7459996 16.91045575 3.4679554 4.8054056 11.2153682 5.0250439 17.3042559.4910987 1.6454134-1.2255673 3.0016517-2.6724681 4.0360545-4.2271296l-.0128734.0135609c.4257763-.6245284.439365-1.4011327-.0097742-1.8568761-.519943-.5283913-1.4639936-.4259579-2.108618.2288403s-1.1574155 1.1381479-1.811099 1.6248877c-1.8242108 1.3582705-3.8377086 2.1726517-5.784932 2.4540406l.0479177 1.2674608-5.1665312-2.7414834 4.9438688-3.1366871.0486329 1.2851384c1.7801074-.0544858 3.7068288-.6308245 5.4950417-1.7580752 4.2661072-2.6889349 6.1279847-7.48199035 4.1590672-10.70561257-.5571329-.91172909-1.3607678-1.60042963-2.3238901-2.05811037l-.1039409-.05472796c-1.4022489-.66472679-3.0040357-.99866426-4.6906916-.99866426-3.035504-.00024212-6.34754802 1.0807562-9.2764887 3.26188341m3.902314 4.08546653c.7917151-.58965746 1.6199049-1.07276491 2.4621601-1.46215677l-.1096624-1.88956763 5.5367611 2.66641409-5.1901324 3.30958871-.1091857-1.88012342c-.7786033.28768504-1.5634049.63082451-2.3441538 1.0325665-1.60130998.8245518-3.02048496 1.80674924-4.2115144 2.86813264.87324676-1.7195719 2.21327408-3.33985861 3.9657275-4.64485412"
          fill-rule="evenodd" shape-rendering="crispEdges"/>
</svg>
