<svg height="18" viewBox="0 0 18 18" width="18" fill="#393aaa" xmlns="http://www.w3.org/2000/svg">
    <path d="m11 1c.8284271 0 1.5.67157288 1.5 1.5v5h5c.8284271 0 1.5.67157288 1.5 1.5v2c0 .8284271-.6715729 1.5-1.5 1.5h-5v5c0 .8284271-.6715729 1.5-1.5 1.5h-2c-.82842712 0-1.5-.6715729-1.5-1.5v-5h-5c-.82842712 0-1.5-.6715729-1.5-1.5v-2c0-.82842712.67157288-1.5 1.5-1.5h5v-5c0-.82842712.67157288-1.5 1.5-1.5zm0 1.3h-2c-.11045695 0-.2.08954305-.2.2v6.3h-6.3c-.11045695 0-.2.08954305-.2.2v2c0 .1104569.08954305.2.2.2h6.3v6.3c0 .1104569.08954305.2.2.2h2c.1104569 0 .2-.0895431.2-.2v-6.3h6.3c.1104569 0 .2-.0895431.2-.2v-2c0-.11045695-.0895431-.2-.2-.2h-6.3v-6.3c0-.11045695-.0895431-.2-.2-.2z"
          transform="translate(-1 -1)"/>
</svg>
