<svg height="16" viewBox="0 0 16 16" width="16" fill="#393aaa" xmlns="http://www.w3.org/2000/svg">
    <g fill-rule="evenodd" transform="translate(-2 -2)">
        <path d="m3 2h5c.55228475 0 1 .40701386 1 .90909091v5.18181818c0 .50207705-.44771525.90909091-1 .90909091h-5c-.55228475 0-1-.40701386-1-.90909091v-5.18181818c0-.50207705.44771525-.90909091 1-.90909091zm0 6.09090909h5v-5.18181818h-5z"
              fill-rule="nonzero"/>
        <rect height="3" rx=".4" width="3" x="4" y="4"/>
        <path d="m3 11h5c.55228475 0 1 .4070139 1 .9090909v5.1818182c0 .502077-.44771525.9090909-1 .9090909h-5c-.55228475 0-1-.4070139-1-.9090909v-5.1818182c0-.502077.44771525-.9090909 1-.9090909zm0 6.0909091h5v-5.1818182h-5z"
              fill-rule="nonzero"/>
        <rect height="2" rx=".4" width="2" x="11" y="11"/>
        <rect height="2" rx=".4" width="2" x="16" y="11"/>
        <rect height="2" rx=".4" width="2" x="11" y="16"/>
        <rect height="2" rx=".4" width="2" x="16" y="16"/>
        <rect height="3" rx=".4" width="3" x="13" y="13"/>
        <rect height="3" rx=".4" width="3" x="4" y="13"/>
        <path d="m12 2h5c.5522847 0 1 .40701386 1 .90909091v5.18181818c0 .50207705-.4477153.90909091-1 .90909091h-5c-.5522847 0-1-.40701386-1-.90909091v-5.18181818c0-.50207705.4477153-.90909091 1-.90909091zm0 6.09090909h5v-5.18181818h-5z"
              fill-rule="nonzero"/>
        <rect height="3" rx=".4" width="3" x="13" y="4"/>
    </g>
</svg>
