<?xml version="1.0" encoding="UTF-8"?>
<svg width="46px" height="46px" viewBox="0 0 46 46" version="1.1" xmlns="http://www.w3.org/2000/svg" xmlns:xlink="http://www.w3.org/1999/xlink">
    <!-- Generator: Sketch 64 (93537) - https://sketch.com -->
    <title>securityNotification</title>
    <desc>Created with Sketch.</desc>
    <g id="Mobile" stroke="none" stroke-width="1" fill="none" fill-rule="evenodd">
        <g id="005-1.-Уведомления" transform="translate(-7.000000, -362.000000)">
            <g id="Group-29" transform="translate(7.000000, 361.000000)">
                <g id="securityNotification" transform="translate(0.000000, 1.000000)">
                    <rect id="Rectangle" fill="#FA675F" x="0" y="0" width="46" height="46" rx="16"></rect>
                    <g id="noun_Lock_2951708" transform="translate(13.000000, 10.000000)" fill="#FFFFFF" fill-rule="nonzero">
                        <path d="M2,10.5 L18,10.5 C19.0538182,10.5 19.9181157,11.3163967 19.9945109,12.3508084 L20,12.5 L20,23 C17.5979818,25.811849 14.2573242,27.2177734 9.97802734,27.2177734 C5.69873047,27.2177734 2.37272135,25.811849 0,23 L0,12.5 C0,11.4461818 0.816396694,10.5818843 1.85080841,10.5054891 L2,10.5 Z M10,14.5 C8.896,14.5 8,15.396 8,16.5 C8,17.1830769 8.34508876,17.7775385 8.86616295,18.1378771 L9,18.223 L9,21 C9,21.2444444 9.17698765,21.4493827 9.41016187,21.4919067 L9.5,21.5 L10.5,21.5 C10.7444444,21.5 10.9493827,21.3222222 10.9919067,21.0895748 L11,21 L11,18.223 C11.596,17.876 12,17.238 12,16.5 C12,15.396 11.104,14.5 10,14.5 Z" id="Shape"></path>
                        <path d="M14.5,7.5 C14.5,5.019 12.48,3 10,3 C7.58988571,3 5.61574857,4.90527673 5.50490817,7.2885106 L5.5,7.5 L5.5,10.5 L2.5,10.5 L2.5,7.5 C2.5,3.364 5.864,0 10,0 C14.0558824,0 17.3678201,3.23337178 17.4961406,7.25761585 L17.5,7.5 L17.5,8.5 L14.5,8.5 L14.5,7.5 Z" id="Path" opacity="0.600000024"></path>
                    </g>
                </g>
            </g>
        </g>
    </g>
</svg>