<svg height="20" viewBox="-0.5 -0.5 25 20" width="25" fill="#fff" xmlns="http://www.w3.org/2000/svg">
    <path d="m15.4285714 2 1.4285715 2.79411641h5.1428571c1.108 0 2 .87232035 2 1.95588149v12.2941206c0 1.0835584-.892 1.9558815-2 1.9558815h-20c-1.108 0-2-.8723231-2-1.9558815v-12.2941206c0-1.08356114.892-1.95588149 2-1.95588149h5.14285714l1.42857143-2.79411641zm-3.4285714 5.86764447c-2.84028571 0-5.14285714 2.25175323-5.14285714 5.02941793 0 2.7776591 2.30257143 5.0294095 5.14285714 5.0294095 2.8403429 0 5.1428571-2.2517504 5.1428571-5.0294095 0-2.7776647-2.3025142-5.02941793-5.1428571-5.02941793z"
          stroke="#252525" stroke-opacity="0.334" stroke-width="0.5" transform="translate(0 -2)"/>
</svg>
