<svg height="16" viewBox="0 0 20 16" width="20" fill="#393aaa" xmlns="http://www.w3.org/2000/svg">
    <path d="m13.7695133 8.15279008-2.2143746-2.7234811c-.5017724-.61714844-.4666742-1.52087184.0914669-2.11208428l.0864299-.08228517.4334356-.37107681c.6497776-.55499 1.6154839-.46500834 2.1569653.20097966l4.8215958 5.93025932c.4732904.58211738.4732904 1.4276792 0 2.0097966l-4.8215958 5.9302593c-.5414814.665988-1.5071877.7559697-2.1569653.2009797l-.4152447-.35467c-.6497776-.55499-.7375691-1.5447883-.1961304-2.2107238l2.2145194-2.7245385h-7.53923083l2.21451939 2.7245385c.5095894.6267629.46179841 1.5404076-.0873112 2.1084252l-.10881919.1022986-.41524466.35467c-.61155544.5223435-1.50296459.4733627-2.05715669-.0894457l-.0998086-.111534-4.82159583-5.9302593c-.44173769-.5433096-.47118687-1.3161085-.08834754-1.89001665l.08834754-.11977995 4.82159583-5.93025932c.50962953-.62681224 1.39504304-.74339048 2.03916976-.2922379l.11779553.09125824.43343555.37107681.08642996.08228517c.52325725.55426166.58680887 1.38319116.17926115 1.9931569l-.08779425.11892738-2.21437462 2.7234811zm1.9233448.92323492h-11.38571623l3.44564816-4.23783653c.183579-.22579061.19254903-.54512193.03637296-.77870953l-.06628876-.08322595-.0587352-.05513286-.40733881-.34791743c-.24079995-.20567277-.58697139-.19622851-.81633764.007631l-.07182453.07512533-4.82159583 5.93025932c-.17323047.21306257-.1924783.51183545-.05774349.74394475l.05774349.0836186 4.82159583 5.9302593c.20066662.2468073.54282473.3014996.80429764.143375l.08386453-.0606187.41524466-.35467c.24079996-.2056728.29416099-.5563669.13988523-.8243629l-.05914321-.0859567-3.4455429-4.2390753h11.385512l-3.4455429 4.2390753c-.2229629.2742303-.1868135.6817943.080742.9103196l.4152447.35467c.2675555.2285253.6651992.191474.8881622-.0827563l4.8215958-5.9302593c.1948843-.2396954.1948843-.58786796 0-.82756335l-4.8215958-5.93025932c-.222963-.27423035-.6206067-.31128163-.8881622-.08275633l-.4073388.34791743-.0587352.05513286c-.2219791.23551915-.2364422.60792105-.0299158.86193548z"
          transform="translate(0 -2)"/>
</svg>
