<svg height="18" viewBox="0 0 18 18" width="18" fill="#ff983d" xmlns="http://www.w3.org/2000/svg">
    <path d="m12.7295177 7.99945581-2.4580156-2.94955339c-.55698085-.66837705-.51802089-1.64711725.1015307-2.28740539l.0959396-.08911555.4811252-.40187936c.7212707-.60105894 1.7932307-.50360803 2.3942896.2176627l5.3521015 6.4225217c.5253651.63043812.5253651 1.54618888 0 2.17662698l-5.3521015 6.4225217c-.6010589.7212707-1.6730189.8187216-2.3942896.2176627l-.4609328-.3841107c-.72127071-.6010589-.81872162-1.6730189-.21771-2.3942328l2.4581762-2.9506986-9.029631.0005442c-.87428077 0-1.60350103-.66278-1.6931683-1.5520913l-.0068317-.1479087v-.6c0-.93888407.76111593-1.7 1.69996987-1.7zm-1.6565904-4.52322549c-.2464028.25506926-.2624572.65838371-.0332074.93348352l3.8247624 4.58961331-11.1644823.00067285c-.38659932 0-.7.31340068-.7.7l-.00063624.5747843.0042731.0973908c.03602375.3547197.33650629.6278249.69633301.6278249l11.16439913-.0006728-3.8246456 4.5909548c-.2474949.2969938-.207368.7383891.0896258.985884l.4609328.3841106c.2969938.2474949.7383891.207368.985884-.0896258l5.3521014-6.4225217c.2163268-.2595922.2163268-.63666601 0-.89625818l-5.3521014-6.4225217c-.2474949-.29699383-.6888902-.33712068-.985884-.08962582l-.4521571.37679755z"
          transform="translate(-2 -1)"/>
</svg>
