<svg height="220" viewBox="0 0 220 220" width="220" xmlns="http://www.w3.org/2000/svg"><g fill="none" fill-rule="evenodd"><rect fill="#fff" height="220" rx="28.285714" width="220"/><g fill-rule="nonzero"><path d="m176.377143 187.848298c-3.432-.33-10.01-.858-15.29-1.232-4.422-.308-24.442-.44-29.92-.176-3.828.176-4.51.154-5.478-.154-3.718-1.232-5.94-7.744-3.85-11.286.396-.682.484-1.32.66-4.752.11-2.178.286-5.236.396-6.82.55-7.106.726-11.748.638-18.722l-.066-7.48.66-1.1c1.452-2.31 4.4-2.948 8.184-1.76 2.596.836 8.228 2.244 11.11 2.794 3.168.594 9.152.814 11.55.418 4.488-.726 9.042-3.036 12.166-6.204 6.776-6.864 10.34-20.152 10.34-38.5880003 0-16.192-2.904-32.758-7.172-41.03-.902-1.76-1.232-2.178-2.662-3.3-2.002-1.606-4.664-2.926-7.106-3.52-2.552-.638-6.27-.506-9.13.352-3.696 1.078-7.986 3.762-9.416 5.896-2.156 3.146-3.586 8.734-4.444 17.534-.308 3.146-.77 11.704-1.1 20.02-.308 8.074-.836 14.0140003-1.342 15.6640003-.44 1.342-2.024 2.816-3.608 3.322-3.014.99-7.106-.176-8.646-2.442-1.012-1.496-1.122-2.288-.748-5.5660003.418-3.564.506-5.016.924-15.598.484-12.254 1.034-18.282 2.222-24.2 2.42-12.012 6.688-19.118 13.948-23.21 5.412-3.036 11.33-4.51 18.084-4.51 11.066 0 19.47 4.356 24.53 12.672 5.236 8.58 8.954 25.872 9.482 43.868.55 18.7220003-1.87 34.1880003-6.952 44.3300003-2.53 5.06-5.214 8.228-9.394 11-4.224 2.838-8.602 4.642-13.464 5.632-3.036.594-9.438.814-13.178.44-2.266-.242-10.296-1.584-11.33-1.914-.308-.088-.374.308-.506 3.256-.088 1.848-.352 6.49-.594 10.296-.22 3.806-.418 7.634-.418 8.492v1.562l9.416.132c7.392.088 10.802.242 15.994.682 8.734.748 11.836.99 16.104 1.21 3.212.154 3.652.22 4.774.77 1.518.748 2.596 1.958 3.608 4.092.748 1.518.792 1.804.814 3.74 0 1.826-.066 2.244-.572 3.19-.33.66-.924 1.364-1.474 1.738-.814.572-1.122.66-2.728.704-1.012.044-3.256-.066-5.016-.242z" fill="#ec2225" transform="matrix(1 0 0 -1 0 220.298298)"/><path d="m182.427143 185.355333c.88-.418 1.276-1.254 1.276-2.816 0-2.222-1.188-4.62-2.794-5.61-.682-.418-1.254-.506-4.686-.682-4.29-.22-4.18-.22-13.486-.99-10.098-.858-17.204-1.1-23.98-.858-3.212.132-5.896.176-5.962.11-.154-.132-.022-2.684.572-12.122.176-2.97.44-8.096.55-11.418s.242-6.05.264-6.094c.044-.022 1.298.242 2.816.594 6.864 1.65 10.186 2.156 15.29 2.332 5.368.176 10.032-.55 14.41-2.244 5.83-2.244 10.626-5.852 13.486-10.164 3.41-5.126 6.072-13.332 7.524-23.166 1.43-9.592 1.584-23.1660002.418-34.5400002-1.166-11.286-3.63-21.692-6.776-28.468-4.334-9.306-11.88-14.168-22.682-14.586-6.116-.242-11.704.902-16.896 3.476-2.794 1.386-3.894 2.156-5.786 4.026-5.434 5.434-8.47 14.388-9.746 28.842-.33 3.586-.66 9.768-.902 16.83-.11 3.454-.374 8.228-.594 10.604-.352 4.0260002-.352 4.4000002-.022 5.1040002.814 1.672 4.422 2.552 6.446 1.54 1.716-.836 1.87-1.452 2.398-9.2180002.198-2.662.44-7.612.572-11 .682-17.666 1.672-25.586 3.982-31.57 1.628-4.224 4.158-6.71 9.262-9.13 3.212-1.518 4.84-1.892 8.536-2.024 2.75-.088 3.476-.044 5.148.352 3.366.814 6.996 2.772 9.328 5.038 1.276 1.232 3.3 5.148 4.4 8.514 5.038 15.18 6.644 38.632 3.762 54.8900002-3.014 17.182-10.142 26.334-22.528 28.952-2.64.55-8.008.506-11.66-.11-3.212-.528-7.876-1.628-11.858-2.772-5.016-1.43-6.666-.836-6.6 2.398.198 8.91.088 15.334-.33 21.362-.242 3.63-.55 8.36-.682 10.516-.198 3.52-.264 3.982-.704 4.576-.44.572-.506.946-.506 2.596 0 1.716.066 2.068.66 3.212 1.254 2.42-.484 2.2 18.106 2.2 17.248 0 16.918 0 31.944 1.298 7.348.638 7.172.638 8.03.22z" fill="#ffeded" transform="matrix(1 0 0 -1 0 220.247332)"/><path d="m73.7911429 32.7003134c8.47 1.21 16.258 5.038 21.758 10.714 9.7020001 9.944 15.6200001 28.886 14.6080001 46.772-.66 11.8139996-3.52 22.1759996-7.942 28.6879996-2.7720001 4.07-7.8100001 8.58-13.6400001 12.188l-.4612802.281995c-1.5800589.9721-1.6727198 1.117868-1.6727198 1.764005l.0011872.078332c.0169106.5389.220506.890413.9939817 1.717762l.2368311.249906c9.966 10.362 11.66 28.182 3.85 39.974-3.014 4.51-7.634 7.832-13.882 9.922-4.51 1.518-10.384 2.244-14.564 1.826-7.348-.726-12.98-3.146-17.27-7.436-7.326-7.348-10.23-19.426-7.348-30.646 1.76-6.842 5.214-12.166 10.692-16.478l.1420334-.109291c1.1109458-.861595 1.6144466-1.416629 1.5299666-1.606709-.066-.176 0-.33.132-.33.1232 0 .2272355.095823.2405594.233807l.0014406.030193c0 .132.066.176.154.088s-1.034-1.364-2.508-2.838l-.5346165-.543037c-3.2648935-3.330833-4.3119835-4.703963-7.7813835-9.928963l-.4156032-.63127c-4.2208324-6.440892-6.1795843-10.379042-8.0763968-16.15473-6.534-19.9319996-2.948-43.0759996 8.778-56.8259996 5.192-6.05 12.738-9.9 21.89-11.11 2.486-.33 8.47-.264 11.088.11zm-6.204 103.9939996-.3569898.017097c-1.6776933.08689-2.3952643.228082-3.5253066.677762l-.0777036.031141c-2.3509804.927451-4.7442523 2.616148-7.1383533 5.06609l-.432706.445266c-1.6362284 1.69281-2.1340836 2.39293-2.9669407 4.058644l-.1227296.253878c-1.5230903 3.174246-1.8572704 4.806122-1.8572704 8.986122l.0105586 1.126843c.0307565 2.291944.1233271 2.988415.5834414 4.637157 1.034 3.762 2.486 6.336 5.038 8.932 1.584 1.606 4.026 2.926 6.336 3.454 1.826.396 5.94.286 7.92-.22 3.344-.88 7.348-3.3 9.064-5.478 3.44124-4.356 4.2087672-11.321026 2.0037295-18.610994l-.0677295-.221006c-1.56816-5.1183-4.7319228-9.697545-8.0397211-11.64577l-.1002789-.05823c-2.046-1.188-3.608-1.562-6.27-1.452zm-3.586-90.8159996c-5.038 1.078-9.328 3.322-12.628 6.622-4.554 4.576-7.678 11.968-8.866 21.12-.462 3.608-.462 11.176 0 15.07 1.122 9.306 4.048 17.6659996 8.426 24.2219996 3.806 5.654 9.504 9.526 16.214 10.978 2.618.572 7.084.484 9.68-.198 7.64478-2.02554 14.0173902-8.708515 17.1325988-17.999654l.0934012-.282346c.9219047-2.786666 1.4646712-5.034557 1.9893834-8.1690051l.1501167-.9127608c.3428786-2.1494674.4084761-3.5720285.4123139-8.1636455l-.000905-1.5274063c-.0100022-4.413889-.0944646-5.7520708-.482909-8.2871819-1.694-10.912-5.368-19.976-10.736-26.422-.77-.924-1.914-2.068-2.552-2.552-2.068-1.584-5.192-2.926-8.426-3.63-2.024-.418-8.162-.352-10.406.132z" fill="#ec2225" transform="matrix(1 0 0 -1 0 219.370314)"/><path d="m66.8202032 35.0434684h2.1938793c3.3941004.0096771 4.236887.0829792 6.3051567.5237864l.3199037.0689153c10.362 2.2 18.194 7.744 23.342 16.544 5.8740001 10.054 9.0640001 23.474 8.6900001 36.52-.22 7.48-1.232 13.5739999-3.344 20.1299999-1.694 5.214-3.828 8.91-7.2380001 12.496l-.2475502.257606c-3.5879739 3.707424-7.13036 6.216574-13.2164498 9.356394l-3.0738653 1.612975c-.1686588.089539-.2647194.14161-.2701347.147025-.0423397.04234.7709006.634695 1.8320516 1.345817l.1259484.084183c7.48 5.038 11.638 13.618 11.638 24.002 0 3.674-.352 6.16-1.342 9.262-2.816 8.91-9.152 14.212-19.668 16.5-2.266.506-9.636.726-11.836.396-2.0246875-.319687-4.5861836-1.052305-6.5844178-1.897832l-.1915822-.082168c-7.304-3.102-12.342-10.164-13.948-19.448-.4112581-2.467548-.4391873-7.788767-.0209301-10.453132l.0209301-.128868c.946-5.874 3.388-11 7.128-14.916 2.003375-2.089542 3.9223784-3.546297 6.665762-4.989869l.176238-.092131 2.2-1.144-3.2414555-2.709012c-4.4527191-3.731616-6.2220154-5.757683-10.2712579-11.839601l-.1272866-.191387c-4.686-7.062-7.084-12.342-9.13-20.2179999-1.4494334-5.6246667-2.0692284-10.61115-2.09-16.9257638v-.3222362c0-5.236.264-8.096 1.1-12.386 1.826-9.174 5.764-16.94 11.44-22.638 4.1345652-4.1345652 9.2377256-6.8054754 15.8204504-8.2256344l.6903347-.1476572c1.9591221-.4120562 2.8430274-.4819749 6.1522752-.4914101zm-7.1310603 101.6607016c-2.2 1.298-7.128 6.116-8.25 8.052-1.914 3.256-2.882 7.238-2.882 11.748 0 7.15 2.816 13.53 7.678 17.446 1.474 1.166 3.938 2.354 6.072 2.904l.1267103.031532c1.156149.280937 2.1832897.340152 4.6032897.276468 3.5035932-.064881 5.7528135-.576234 8.4823783-1.931163l.1416217-.070837c7.304-3.63 10.406-9.35 10.01-18.348-.33-7.282-3.212-14.168-7.744-18.48-5.104-4.84-11.792-5.456-18.238-1.628zm15.488-93.1479999c-2.574-.55-9.02-.55-11.55-.022-11.858 2.574-19.206 10.362-22.55 23.936-1.2598481 5.104557-1.6189406 8.9437667-1.4796041 15.3503201l.0056041.2476799c.132 5.412.55 8.822 1.672 13.486 2.75 11.4839999 7.898 20.3279999 14.652 25.1679999 3.102 2.222 7.898 4.246 11.66 4.928l.0714839.011532c.692062.101499 2.6816589.140897 4.5485161.098468l.5411873-.012933c2.5439288-.065838 3.417765-.171797 5.0248127-.625067 9.746-2.706 17.072-11.748 19.932-24.552l.1397057-.644914c.9990009-4.6650628 1.1812405-6.8005483 1.2022943-12.8850859l-.0021461-.8627832c-.0156514-3.125786-.1159667-5.8036572-.2697292-6.9566317l-.0141247-.1005851c-1.188-8.514-2.838-14.432-5.654-20.306-2.046-4.268-3.806-7.018-6.468-10.12-2.464-2.882-6.556-5.082-11.462-6.138z" fill="#ffeded" transform="matrix(1 0 0 -1 0 219.49017)"/></g></g></svg>
